<svg height="1390" width="720" xmlns="http://www.w3.org/2000/svg">
<rect height="1390" fill="#555" width="720"></rect>
<text fill="#7f7" font-family="Courier New" font-size="12" xml:space="preserve">
<tspan x="10" y="26">16 megabytes installed</tspan>
<tspan x="10" y="42"></tspan>
<tspan x="10" y="58">node_modules</tspan>
<tspan x="10" y="74">└─┬ find-rss@1.6.4 </tspan>
<tspan x="10" y="90">  ├─┬ async@2.3.0 </tspan>
<tspan x="10" y="106">  │ └── lodash@4.17.4 </tspan>
<tspan x="10" y="122">  ├─┬ feedparser@2.2.0 </tspan>
<tspan x="10" y="138">  │ ├── addressparser@1.0.1 </tspan>
<tspan x="10" y="154">  │ ├── array-indexofobject@0.0.1 </tspan>
<tspan x="10" y="170">  │ ├── lodash.assign@4.2.0 </tspan>
<tspan x="10" y="186">  │ ├── lodash.get@4.4.2 </tspan>
<tspan x="10" y="202">  │ ├── lodash.has@4.5.2 </tspan>
<tspan x="10" y="218">  │ ├── lodash.uniq@4.5.0 </tspan>
<tspan x="10" y="234">  │ ├─┬ readable-stream@2.2.9 </tspan>
<tspan x="10" y="250">  │ │ ├── buffer-shims@1.0.0 </tspan>
<tspan x="10" y="266">  │ │ ├── core-util-is@1.0.2 </tspan>
<tspan x="10" y="282">  │ │ ├── isarray@1.0.0 </tspan>
<tspan x="10" y="298">  │ │ ├── process-nextick-args@1.0.7 </tspan>
<tspan x="10" y="314">  │ │ ├── string_decoder@1.0.0 </tspan>
<tspan x="10" y="330">  │ │ └── util-deprecate@1.0.2 </tspan>
<tspan x="10" y="346">  │ └── sax@1.2.2 </tspan>
<tspan x="10" y="362">  ├─┬ htmlparser2@3.9.2 </tspan>
<tspan x="10" y="378">  │ ├── domelementtype@1.3.0 </tspan>
<tspan x="10" y="394">  │ ├── domhandler@2.3.0 </tspan>
<tspan x="10" y="410">  │ ├─┬ domutils@1.5.1 </tspan>
<tspan x="10" y="426">  │ │ └─┬ dom-serializer@0.1.0 </tspan>
<tspan x="10" y="442">  │ │   └── domelementtype@1.1.3 </tspan>
<tspan x="10" y="458">  │ ├── entities@1.1.1 </tspan>
<tspan x="10" y="474">  │ └── inherits@2.0.3 </tspan>
<tspan x="10" y="490">  ├── iconv-lite@0.4.15 </tspan>
<tspan x="10" y="506">  ├── jschardet@1.4.2 </tspan>
<tspan x="10" y="522">  └─┬ request@2.81.0 </tspan>
<tspan x="10" y="538">    ├── aws-sign2@0.6.0 </tspan>
<tspan x="10" y="554">    ├── aws4@1.6.0 </tspan>
<tspan x="10" y="570">    ├── caseless@0.12.0 </tspan>
<tspan x="10" y="586">    ├─┬ combined-stream@1.0.5 </tspan>
<tspan x="10" y="602">    │ └── delayed-stream@1.0.0 </tspan>
<tspan x="10" y="618">    ├── extend@3.0.0 </tspan>
<tspan x="10" y="634">    ├── forever-agent@0.6.1 </tspan>
<tspan x="10" y="650">    ├─┬ form-data@2.1.4 </tspan>
<tspan x="10" y="666">    │ └── asynckit@0.4.0 </tspan>
<tspan x="10" y="682">    ├─┬ har-validator@4.2.1 </tspan>
<tspan x="10" y="698">    │ ├─┬ ajv@4.11.7 </tspan>
<tspan x="10" y="714">    │ │ ├── co@4.6.0 </tspan>
<tspan x="10" y="730">    │ │ └─┬ json-stable-stringify@1.0.1 </tspan>
<tspan x="10" y="746">    │ │   └── jsonify@0.0.0 </tspan>
<tspan x="10" y="762">    │ └── har-schema@1.0.5 </tspan>
<tspan x="10" y="778">    ├─┬ hawk@3.1.3 </tspan>
<tspan x="10" y="794">    │ ├── boom@2.10.1 </tspan>
<tspan x="10" y="810">    │ ├── cryptiles@2.0.5 </tspan>
<tspan x="10" y="826">    │ ├── hoek@2.16.3 </tspan>
<tspan x="10" y="842">    │ └── sntp@1.0.9 </tspan>
<tspan x="10" y="858">    ├─┬ http-signature@1.1.1 </tspan>
<tspan x="10" y="874">    │ ├── assert-plus@0.2.0 </tspan>
<tspan x="10" y="890">    │ ├─┬ jsprim@1.4.0 </tspan>
<tspan x="10" y="906">    │ │ ├── assert-plus@1.0.0 </tspan>
<tspan x="10" y="922">    │ │ ├── extsprintf@1.0.2 </tspan>
<tspan x="10" y="938">    │ │ ├── json-schema@0.2.3 </tspan>
<tspan x="10" y="954">    │ │ └── verror@1.3.6 </tspan>
<tspan x="10" y="970">    │ └─┬ sshpk@1.13.0 </tspan>
<tspan x="10" y="986">    │   ├── asn1@0.2.3 </tspan>
<tspan x="10" y="1002">    │   ├── assert-plus@1.0.0 </tspan>
<tspan x="10" y="1018">    │   ├── bcrypt-pbkdf@1.0.1 </tspan>
<tspan x="10" y="1034">    │   ├─┬ dashdash@1.14.1 </tspan>
<tspan x="10" y="1050">    │   │ └── assert-plus@1.0.0 </tspan>
<tspan x="10" y="1066">    │   ├── ecc-jsbn@0.1.1 </tspan>
<tspan x="10" y="1082">    │   ├─┬ getpass@0.1.6 </tspan>
<tspan x="10" y="1098">    │   │ └── assert-plus@1.0.0 </tspan>
<tspan x="10" y="1114">    │   ├── jodid25519@1.0.2 </tspan>
<tspan x="10" y="1130">    │   ├── jsbn@0.1.1 </tspan>
<tspan x="10" y="1146">    │   └── tweetnacl@0.14.5 </tspan>
<tspan x="10" y="1162">    ├── is-typedarray@1.0.0 </tspan>
<tspan x="10" y="1178">    ├── isstream@0.1.2 </tspan>
<tspan x="10" y="1194">    ├── json-stringify-safe@5.0.1 </tspan>
<tspan x="10" y="1210">    ├─┬ mime-types@2.1.15 </tspan>
<tspan x="10" y="1226">    │ └── mime-db@1.27.0 </tspan>
<tspan x="10" y="1242">    ├── oauth-sign@0.8.2 </tspan>
<tspan x="10" y="1258">    ├── performance-now@0.2.0 </tspan>
<tspan x="10" y="1274">    ├── qs@6.4.0 </tspan>
<tspan x="10" y="1290">    ├── safe-buffer@5.0.1 </tspan>
<tspan x="10" y="1306">    ├── stringstream@0.0.5 </tspan>
<tspan x="10" y="1322">    ├─┬ tough-cookie@2.3.2 </tspan>
<tspan x="10" y="1338">    │ └── punycode@1.4.1 </tspan>
<tspan x="10" y="1354">    ├── tunnel-agent@0.6.0 </tspan>
<tspan x="10" y="1370">    └── uuid@3.0.1</tspan>
</text>
</svg>
